<svg width="24" height="25" viewBox="0 0 24 25" fill="none" xmlns="http://www.w3.org/2000/svg">
<path d="M16.5 6.78906H13.5C12.9477 6.78906 12.5 7.23678 12.5 7.78906V10.7891H16.5C16.6137 10.7865 16.7216 10.8395 16.7892 10.931C16.8568 11.0225 16.8758 11.1411 16.84 11.2491L16.1 13.4491C16.0318 13.651 15.8431 13.7875 15.63 13.7891H12.5V21.2891C12.5 21.5652 12.2761 21.7891 12 21.7891H9.5C9.22386 21.7891 9 21.5652 9 21.2891V13.7891H7.5C7.22386 13.7891 7 13.5652 7 13.2891V11.2891C7 11.013 7.22386 10.7891 7.5 10.7891H9V7.78906C9 5.57992 10.7909 3.78906 13 3.78906H16.5C16.7761 3.78906 17 4.01292 17 4.28906V6.28906C17 6.5652 16.7761 6.78906 16.5 6.78906Z" fill="white"/>
</svg>
