<svg width="63" height="28" viewBox="0 0 63 28" fill="none" xmlns="http://www.w3.org/2000/svg">
<g clip-path="url(#clip0_11_22)">
<path d="M0.564453 21.7895H13.2485V18.2335H5.10045V1.76953H0.564453V21.7895Z" fill="white"/>
<path d="M21.5874 19.0166C19.2914 19.0166 18.0034 17.3366 18.0034 14.5366V14.3126C18.0034 11.5126 19.3474 9.88859 21.5874 9.88859C23.8554 9.88859 25.1714 11.5686 25.1714 14.3686V14.5646C25.1714 17.3366 23.8554 19.0166 21.5874 19.0166ZM21.5594 22.0966C25.9554 22.0966 29.2874 19.1566 29.2874 14.5366V14.3126C29.2874 9.74859 25.9834 6.80859 21.5874 6.80859C17.1914 6.80859 13.8594 9.80459 13.8594 14.3966V14.6206C13.8594 19.1846 17.1914 22.0966 21.5594 22.0966Z" fill="white"/>
<path d="M37.6645 27.1926C42.4805 27.1926 45.3645 24.9806 45.3925 20.6406V7.14459H41.3605V9.32859C40.5205 7.84459 39.0925 6.80859 36.7125 6.80859C33.0725 6.80859 30.2725 9.74859 30.2725 13.9486V14.1446C30.2725 18.4846 33.1005 21.1446 36.6565 21.1446C38.8125 21.1446 40.5485 19.8566 41.3605 18.4286V20.6406C41.3605 22.9366 40.1285 24.2246 37.6645 24.2246C35.5925 24.2246 34.6685 23.3846 34.4165 22.0966H30.3845C30.7765 25.1206 32.9325 27.1926 37.6645 27.1926ZM37.8605 18.0926C35.8445 18.0926 34.4165 16.5806 34.4165 14.1446V13.9206C34.4165 11.5126 35.6765 9.88859 37.9445 9.88859C40.1565 9.88859 41.4725 11.4006 41.4725 13.8926V14.0886C41.4725 16.5806 39.9885 18.0926 37.8605 18.0926Z" fill="white"/>
<path d="M54.9614 19.0166C52.6654 19.0166 51.3774 17.3366 51.3774 14.5366V14.3126C51.3774 11.5126 52.7214 9.88859 54.9614 9.88859C57.2294 9.88859 58.5454 11.5686 58.5454 14.3686V14.5646C58.5454 17.3366 57.2294 19.0166 54.9614 19.0166ZM54.9334 22.0966C59.3294 22.0966 62.6614 19.1566 62.6614 14.5366V14.3126C62.6614 9.74859 59.3574 6.80859 54.9614 6.80859C50.5654 6.80859 47.2334 9.80459 47.2334 14.3966V14.6206C47.2334 19.1846 50.5654 22.0966 54.9334 22.0966Z" fill="white"/>
</g>
<defs>
<clipPath id="clip0_11_22">
<rect width="63" height="27" fill="white" transform="translate(0 0.789062)"/>
</clipPath>
</defs>
</svg>
