<svg width="24" height="25" viewBox="0 0 24 25" fill="none" xmlns="http://www.w3.org/2000/svg">
<path fill-rule="evenodd" clip-rule="evenodd" d="M5 3.78906H19C20.1046 3.78906 21 4.68449 21 5.78906V19.7891C21 20.8937 20.1046 21.7891 19 21.7891H5C3.89543 21.7891 3 20.8937 3 19.7891V5.78906C3 4.68449 3.89543 3.78906 5 3.78906ZM8 18.7891C8.27614 18.7891 8.5 18.5652 8.5 18.2891V11.2891C8.5 11.013 8.27614 10.7891 8 10.7891H6.5C6.22386 10.7891 6 11.013 6 11.2891V18.2891C6 18.5652 6.22386 18.7891 6.5 18.7891H8ZM7.25 9.78906C6.42157 9.78906 5.75 9.11749 5.75 8.28906C5.75 7.46063 6.42157 6.78906 7.25 6.78906C8.07843 6.78906 8.75 7.46063 8.75 8.28906C8.75 9.11749 8.07843 9.78906 7.25 9.78906ZM17.5 18.7891C17.7761 18.7891 18 18.5652 18 18.2891V13.6891C18.0325 12.0999 16.8576 10.7436 15.28 10.5491C14.177 10.4483 13.1083 10.9635 12.5 11.8891V11.2891C12.5 11.013 12.2761 10.7891 12 10.7891H10.5C10.2239 10.7891 10 11.013 10 11.2891V18.2891C10 18.5652 10.2239 18.7891 10.5 18.7891H12C12.2761 18.7891 12.5 18.5652 12.5 18.2891V14.5391C12.5 13.7107 13.1716 13.0391 14 13.0391C14.8284 13.0391 15.5 13.7107 15.5 14.5391V18.2891C15.5 18.5652 15.7239 18.7891 16 18.7891H17.5Z" fill="white"/>
</svg>
