<svg width="24" height="25" viewBox="0 0 24 25" fill="none" xmlns="http://www.w3.org/2000/svg">
<path fill-rule="evenodd" clip-rule="evenodd" d="M16 3.78906H8C5.23858 3.78906 3 6.02764 3 8.78906V16.7891C3 19.5505 5.23858 21.7891 8 21.7891H16C18.7614 21.7891 21 19.5505 21 16.7891V8.78906C21 6.02764 18.7614 3.78906 16 3.78906ZM19.25 16.7891C19.2445 18.5817 17.7926 20.0336 16 20.0391H8C6.20735 20.0336 4.75549 18.5817 4.75 16.7891V8.78906C4.75549 6.99641 6.20735 5.54455 8 5.53906H16C17.7926 5.54455 19.2445 6.99641 19.25 8.78906V16.7891ZM16.75 9.03906C17.3023 9.03906 17.75 8.59134 17.75 8.03906C17.75 7.48678 17.3023 7.03906 16.75 7.03906C16.1977 7.03906 15.75 7.48678 15.75 8.03906C15.75 8.59134 16.1977 9.03906 16.75 9.03906ZM12 8.28906C9.51472 8.28906 7.5 10.3038 7.5 12.7891C7.5 15.2744 9.51472 17.2891 12 17.2891C14.4853 17.2891 16.5 15.2744 16.5 12.7891C16.5027 11.5948 16.0294 10.4486 15.1849 9.60414C14.3404 8.75965 13.1943 8.2864 12 8.28906ZM9.25 12.7891C9.25 14.3079 10.4812 15.5391 12 15.5391C13.5188 15.5391 14.75 14.3079 14.75 12.7891C14.75 11.2703 13.5188 10.0391 12 10.0391C10.4812 10.0391 9.25 11.2703 9.25 12.7891Z" fill="white"/>
</svg>
