<svg width="32" height="33" viewBox="0 0 32 33" fill="none" xmlns="http://www.w3.org/2000/svg">
<path d="M15.9993 21.8438C18.9448 21.8438 21.3327 19.456 21.3327 16.5105C21.3327 13.565 18.9448 11.1772 15.9993 11.1772C13.0538 11.1772 10.666 13.565 10.666 16.5105C10.666 19.456 13.0538 21.8438 15.9993 21.8438Z" stroke="white" stroke-width="2.66667" stroke-linecap="round" stroke-linejoin="round"/>
<path d="M4 21.8438V11.1772C4 7.49527 6.98477 4.5105 10.6667 4.5105H21.3333C25.0152 4.5105 28 7.49527 28 11.1772V21.8438C28 25.5257 25.0152 28.5105 21.3333 28.5105H10.6667C6.98477 28.5105 4 25.5257 4 21.8438Z" stroke="white" stroke-width="2.66667"/>
<path d="M23.334 9.1905L23.3473 9.17569" stroke="white" stroke-width="2.66667" stroke-linecap="round" stroke-linejoin="round"/>
</svg>
