<svg width="108" height="24" viewBox="0 0 108 24" fill="none" xmlns="http://www.w3.org/2000/svg">
<path d="M14.1742 8.21951H7.77419C7.77419 7.38751 7.83819 6.3315 7.10219 6.3315C6.39819 6.3315 6.43019 7.3555 6.46219 8.09151V15.2915C6.43019 15.9955 6.46219 16.8595 7.10219 16.8595C7.83819 16.8595 7.77419 15.8035 7.77419 14.9715H14.1742C13.9822 19.5475 12.1582 23.1315 7.10219 23.0995C2.01419 23.0035 0.190188 19.0995 0.0621875 15.2915V8.09151C0.126188 4.21951 1.91819 0.251505 7.10219 0.123505C12.1582 0.123505 13.9822 3.64351 14.1742 8.21951ZM28.3214 7.48351L28.3534 15.5475C28.3534 19.7715 26.2734 23.0995 21.4734 23.0995C16.5134 23.0995 14.6254 19.1315 14.6254 15.2915V7.54751C14.6254 3.61151 16.4174 0.123505 21.4734 0.123505C26.1134 0.123505 28.3214 3.2595 28.3214 7.48351ZM21.4734 16.8595C22.0814 16.8595 22.1454 16.0595 22.1454 15.2915V7.8035C22.1134 7.0675 22.0814 6.3315 21.4734 6.3315C20.7694 6.3315 20.8334 7.3555 20.8334 8.09151V15.2915C20.8334 15.9955 20.8334 16.8595 21.4734 16.8595ZM37.0942 5.11551V0.443504H43.4942V22.8435H37.0942L35.7822 18.0755V22.8435H29.3822V0.443504H35.7822L37.0942 5.11551ZM50.7397 7.19551C50.7397 9.30751 58.5157 8.09151 58.5157 15.1315C58.5157 17.6595 58.8037 22.9395 51.4437 23.0995C46.4197 23.1315 44.3717 21.3395 44.4037 16.7315H50.8037C50.8037 17.5635 50.7397 18.6195 51.4437 18.6195C52.3077 18.6195 52.1157 17.7555 52.1157 16.1235C52.1477 12.6995 44.3717 15.5155 44.4037 8.89151C44.4037 4.5715 45.0757 0.123505 51.4437 0.123505C56.4997 0.123505 58.3237 1.8835 58.5157 6.45951H52.1157C52.1157 5.6275 52.1797 4.5715 51.4437 4.5715C50.6117 4.5715 50.7397 5.24351 50.7397 7.19551ZM66.9654 14.7795V0.475504H73.3654V15.1315C73.0774 19.6435 71.2214 23.1315 66.2934 23.0995C61.2054 23.0035 59.3814 19.0035 59.2534 15.1315V0.443504H65.6534V15.1315C65.6214 15.8355 65.6534 16.7315 66.2934 16.7315C66.9334 16.6995 66.9654 15.8995 66.9654 15.1315V14.8115C66.9654 14.8115 66.9654 14.8115 66.9654 14.7795ZM85.8352 0.443504C89.9632 0.443504 89.3872 0.443504 93.4832 0.443504V22.8435H87.0832V17.8195L86.2192 22.8435H81.7072L80.8752 17.8515L80.9072 22.8435H74.5072L74.4752 0.443504C78.3152 0.443504 78.3152 0.443504 82.0592 0.443504L83.9472 11.6435L85.8352 0.443504ZM94.7884 0.443504H107.972V6.13951H101.188V8.79551H107.012V14.4595H101.188V17.1795H107.972V22.8435H94.7884V0.443504Z" fill="white"/>
</svg>
