<svg width="24" height="25" viewBox="0 0 24 25" fill="none" xmlns="http://www.w3.org/2000/svg">
<path d="M20.9727 7.50646C20.5083 8.12598 19.9469 8.66639 19.3102 9.10682C19.3102 9.26865 19.3102 9.43048 19.3102 9.60131C19.3153 12.5402 18.1414 15.3582 16.0517 17.4236C13.9619 19.489 11.1311 20.629 8.19393 20.588C6.49587 20.5937 4.81955 20.206 3.2963 19.4552C3.21416 19.4193 3.16119 19.3381 3.1615 19.2484V19.1495C3.1615 19.0204 3.26611 18.9158 3.39515 18.9158C5.0643 18.8607 6.6739 18.282 7.99622 17.2615C6.48541 17.231 5.12607 16.336 4.50048 14.9598C4.46889 14.8847 4.47872 14.7984 4.52645 14.7323C4.57417 14.6662 4.65288 14.6298 4.73413 14.6362C5.1933 14.6823 5.65706 14.6396 6.10008 14.5103C4.43227 14.1641 3.17909 12.7795 2.99974 11.0848C2.99337 11.0035 3.0298 10.9248 3.09588 10.877C3.16195 10.8293 3.24812 10.8194 3.32326 10.8511C3.77082 11.0486 4.25397 11.1526 4.74312 11.1567C3.28172 10.1975 2.65049 8.37311 3.20643 6.71528C3.26382 6.55419 3.40169 6.43518 3.56938 6.402C3.73706 6.36881 3.90984 6.42634 4.0242 6.55345C5.99627 8.65231 8.70592 9.90302 11.5818 10.0419C11.5082 9.74791 11.472 9.44582 11.474 9.14278C11.5009 7.55378 12.4841 6.13827 13.9633 5.55893C15.4424 4.9796 17.1248 5.35109 18.2229 6.4995C18.9713 6.35691 19.6949 6.10551 20.3706 5.75327C20.4201 5.72237 20.4829 5.72237 20.5324 5.75327C20.5633 5.80279 20.5633 5.86558 20.5324 5.9151C20.2051 6.66458 19.6522 7.29318 18.9508 7.71325C19.565 7.64202 20.1684 7.49713 20.7481 7.2817C20.7969 7.24848 20.861 7.24848 20.9098 7.2817C20.9507 7.3004 20.9813 7.33617 20.9934 7.37948C21.0055 7.42279 20.9979 7.46924 20.9727 7.50646Z" fill="white"/>
</svg>
